/* XPM */
static char *_614172102252[] = {
/* columns rows colors chars-per-pixel */
"106 35 12 1 ",
"  c white",
". c black",
"X c #CF0C0C",
"o c #DFC9C1",
"O c #F7C4C4",
"+ c #D01515",
"@ c #9C0C0C",
"# c #BAA8A1",
"$ c #740909",
"% c #8B7E78",
"& c #590707",
"* c #5C5450",
/* pixels */
"                                                                                                          ",
"                                                                                                          ",
"                                                                                                          ",
"                                                                                                          ",
"   ....................................................................................................   ",
"  ......................................................................................................  ",
" ....XXXXXXXXXXXXXXXXXXXXXXXXXXXXXXXXXXXXXXoooooooooooooooooooooooooooooooooooooooooooooooooooooooooo.... ",
" ...XXXXXXXXXXXXXXXXXXXXXXXXXXXXXXXXXXXXXXXooooooooooooooooooooooooooooooooooooooooooooooooooooooooooo... ",
" ..XXXXXOOOOOOOOOOOOOOOOOOOOOOOOOOOOOOOOOOOoooooooooooooooooooooooooooooooooooooooooooooooooooooooooooo.. ",
" ..XXXXXXXXXXXXXXXXXXXXXXXXXXXXXXXXXXXXXXXXoooooooooooooooooooooooooooooooooooooooooooooooooooooooooooo.. ",
" ..XXXXXXXXXXXXXXXXXXXXXXXXXXXXXXXXXXXXXXXXoooooooooooooooooooooooooooooooooooooooooooooooooooooooooooo.. ",
" ..XXXXXXXXXXXXXXXXXXXXXXXXXXXXXXXXXXXXXXXXoooooooooooooooooooooooooooooooooooooooooooooooooooooooooooo.. ",
" ..XXXXXXXXXXXXXXXXXXXXXXXXXXXXXXXXXXXXXXXXoooooooooooooooooooooooooooooooooooooooooooooooooooooooooooo.. ",
" ..XXXXXXXXXXXXXXXXXXXXXXXXXXXXXXXXXXXXXXXXoooooooooooooooooooooooooooooooooooooooooooooooooooooooooooo.. ",
" ..XXXXXXXXXXXXXXXXXXXXXXXXXXXXXXXXXXXXXXXXoooooooooooooooooooooooooooooooooooooooooooooooooooooooooooo.. ",
" ..XXXXXXXXXXXXXXXXXXXXXXXXXXXXXXXXXXXXXXXXoooooooooooooooooooooooooooooooooooooooooooooooooooooooooooo.. ",
" ..XXXXXXXXXXXXXXXXXXXXXXXXXXXXXXXXXXXXXXXXoooooooooooooooooooooooooooooooooooooooooooooooooooooooooooo.. ",
" ..XXXXXXXXXXXXXXXXXXXXXXXXXXXXXXXXXXXXXXXXoooooooooooooooooooooooooooooooooooooooooooooooooooooooooooo.. ",
" ..XXXXXXXXXXXXXXXXXXXXXXXXXXXXXXXXXXXXXXXXoooooooooooooooooooooooooooooooooooooooooooooooooooooooooooo.. ",
" ..@@@@@@@@@@@@@@@@@@@@@@@@@@@@@@@@@@@@@@@@############################################################.. ",
" ..@@@@@@@@@@@@@@@@@@@@@@@@@@@@@@@@@@@@@@@@############################################################.. ",
" ..@@@@@@@@@@@@@@@@@@@@@@@@@@@@@@@@@@@@@@@@############################################################.. ",
" ..@@@@@@@@@@@@@@@@@@@@@@@@@@@@@@@@@@@@@@@@############################################################.. ",
" ..$$$$$$$$$$$$$$$$$$$$$$$$$$$$$$$$$$$$$$$$%%%%%%%%%%%%%%%%%%%%%%%%%%%%%%%%%%%%%%%%%%%%%%%%%%%%%%%%%%%%.. ",
" ..$$$$$$$$$$$$$$$$$$$$$$$$$$$$$$$$$$$$$$$$%%%%%%%%%%%%%%%%%%%%%%%%%%%%%%%%%%%%%%%%%%%%%%%%%%%%%%%%%%%%.. ",
" ..$$$$$$$$$$$$$$$$$$$$$$$$$$$$$$$$$$$$$$$$%%%%%%%%%%%%%%%%%%%%%%%%%%%%%%%%%%%%%%%%%%%%%%%%%%%%%%%%%%%%.. ",
" ..&&&&&&&&&&&&&&&&&&&&&&&&&&&&&&&&&&&&&&&&************************************************************.. ",
" ...&&&&&&&&&&&&&&&&&&&&&&&&&&&&&&&&&&&&&&&***********************************************************... ",
" ....&&&&&&&&&&&&&&&&&&&&&&&&&&&&&&&&&&&&&&**********************************************************.... ",
"  ......................................................................................................  ",
"   ....................................................................................................   ",
"                                                                                                          ",
"                                                                                                          ",
"                                                                                                          ",
"                                                                                                          "
};
