/* XPM */
static char *_5942d60283c4fa2a99dfcd3c2ed0965VJjaNTNt2UFnYMVH[] = {
/* columns rows colors chars-per-pixel */
"64 64 10 1 ",
"  c black",
". c #505758",
"X c #798182",
"o c #BDF9F0",
"O c #6E7778",
"+ c #649196",
"@ c gray97",
"# c #93C2C6",
"$ c #63EB51",
"% c #47AD3A",
/* pixels */
"                                                                ",
"                                                                ",
"                                                                ",
"                                                                ",
"                                                                ",
"                                                                ",
"                                                                ",
"                                                                ",
"                                                                ",
"                                                                ",
"                                                                ",
"                                                                ",
"                                                                ",
"                                                                ",
"                                                                ",
"                                                                ",
"                                                                ",
"                                                                ",
"                                       .X                       ",
"                                       X.X                      ",
"                                   o  XXO.X                     ",
"                                  o+@XXOO..                     ",
"                                  o@+oOO.                       ",
"                                 o#@#+o.                        ",
"                                o#@###+#                        ",
"                               o#@#####+#                       ",
"                              o#@$$%%%##                        ",
"                             o$@$$%%%#                          ",
"                            o$@$$%%%#                           ",
"                           o$@$$%%%#                            ",
"                          o$@$$%%%#                             ",
"                          o@$$%%%#                              ",
"                          o$$%%%#                               ",
"                          o$%%%#                                ",
"                          @####                                 ",
"                         @                                      ",
"                        @                                       ",
"                       @                                        ",
"                      @                                         ",
"                     @                                          ",
"                     $                                          ",
"                                                                ",
"                                                                ",
"                                                                ",
"                                                                ",
"                                                                ",
"                                                                ",
"                                                                ",
"                                                                ",
"                                                                ",
"                                                                ",
"                                                                ",
"                                                                ",
"                                                                ",
"                                                                ",
"                                                                ",
"                                                                ",
"                                                                ",
"                                                                ",
"                                                                ",
"                                                                ",
"                                                                ",
"                                                                ",
"                                                                "
};
