/* XPM */
static char *b852bc5ae19d419bd256f8f3d4eedc92TCIVPIyC2zr0sCmi[] = {
/* columns rows colors chars-per-pixel */
"64 64 32 1 ",
"  c black",
". c #410101",
"X c #6B0303",
"o c #4D0202",
"O c #C50101",
"+ c red",
"@ c #DE0000",
"# c #8F0101",
"$ c #400000",
"% c #590202",
"& c #D60101",
"* c #D40101",
"= c #850101",
"- c #370000",
"; c #FF9C9C",
": c white",
"> c #E70000",
", c #9A0101",
"< c #4F0101",
"1 c #690303",
"2 c #E60000",
"3 c #FFB8B8",
"4 c #FF6363",
"5 c #4D0101",
"6 c #7B0101",
"7 c #B50101",
"8 c #AE0101",
"9 c #A50202",
"0 c #940202",
"q c #840202",
"w c #150000",
"e c #0C0000",
/* pixels */
"                                                                ",
"                                                                ",
"                                                                ",
"                                                                ",
"                                                                ",
"                                                                ",
"                                                                ",
"                                                                ",
"                                                                ",
"                                                                ",
"                                                                ",
"                                                                ",
"                                                                ",
"                                                                ",
"                                                                ",
"                                                                ",
"                                                                ",
"                                                                ",
"                                                                ",
"                                                                ",
"                                                                ",
"                                                                ",
"                                                                ",
"                                                                ",
"                                                                ",
"                                                                ",
"                                                                ",
"                            .XXo    oXX.                        ",
"                           oO+@#$  %&@*=-                       ",
"                          %&;:;>,<12+++@#$                      ",
"                         X234+++++@+++++>,5                     ",
"                         X24++++++++++++>,5                     ",
"                         X2+++++++++++++>,5                     ",
"                          %&+++++++++++@#$                      ",
"                          %&+++++++++++@#$                      ",
"                           $O+++++++++*6$                       ",
"                           $O++++++++@6$                        ",
"                            $7++++++@8$                         ",
"                             $9++++@8$                          ",
"                              $0++@8$                           ",
"                               $q@8$                            ",
"                                $1$                             ",
"                                 $                              ",
"                                                                ",
"                                                                ",
"                                                                ",
"                                                                ",
"                                                                ",
"                                                                ",
"                                                                ",
"                                                                ",
"                                                                ",
"                                                                ",
"                                                                ",
"                                                                ",
"                                                                ",
"                                                                ",
"                                                                ",
"                                                                ",
"                                                                ",
"                                                                ",
"                                                                ",
"                                                                ",
"                                                                "
};
