/* XPM */
static char *a9ca184942924ea6bb35e94bacba63255TPeulDiuQzcCyZk[] = {
/* columns rows colors chars-per-pixel */
"64 64 14 1 ",
"  c black",
". c #394C2C",
"X c #771B4D",
"o c #C1FF93",
"O c #94C96D",
"+ c #D32885",
"@ c #7AA858",
"# c #BF2578",
"$ c #EB2B93",
"% c #96CC6E",
"& c #5B4D34",
"* c #F9D38C",
"= c #B49967",
"- c #E8C586",
/* pixels */
"                                                                ",
"                                                                ",
"                                                                ",
"                                                                ",
"                                                                ",
"                                                                ",
"                                                                ",
"                                                                ",
"                                                                ",
"                                                                ",
"                                                                ",
"                                                                ",
"                                                                ",
"                                                                ",
"                                                                ",
"                                                                ",
"                                                                ",
"                                                                ",
"                                                                ",
"                                                                ",
"                                                                ",
"                                                                ",
"                                                                ",
"                                                                ",
"                                                                ",
"                                                                ",
"                                                                ",
"                                                                ",
"                                                                ",
"                                                                ",
"                                                                ",
"                                                                ",
"                                                                ",
"                                                                ",
"                                                                ",
"                                                                ",
"                                                                ",
"                                                                ",
"                                                                ",
"                                                                ",
"                                                                ",
"                             .....                              ",
"                       XXXX..oooOO. XXXX                        ",
"                      X+++X@oOOOOOOX+++#X                       ",
"                     .X#X@@OOOOOOOOX$+##X.                      ",
"                  ...oOOOOOOOOOOOOOOXXXXX@.                     ",
"                 .oooOOOXXXXOOOOOOOOOO@@@@@.XXX                 ",
"                XXOOOOOX++++XOOOOOOOOOOOOOOX++#X                ",
"               X+#XOOOX+++++#X@OOOOOOOOOOOOX+++#X               ",
"               X+X@OOOX++++##X@OOOOOOOOOOOOOX+##X               ",
"               XX@OOOOOX+##XX@@OOOXXXXOOOOOOOXX                 ",
"               .@OOOOOOOXXX@@OOOOX+++#X@OOOOOO@.                ",
"                .OO%%OOOO@@@OOOOOOX+#X@OOOOOO@@.                ",
"                 ...%%%%OOOOOOOOOOOXX@@OOO@@@@@.                ",
"                    ..@@@@@@@@@@@@@@@@@@@@@....                 ",
"                      .....................                     ",
"                          &*=*******-=&                         ",
"                         &**=********=&                         ",
"                         &**=********==&                        ",
"                        &**-=*********=&                        ",
"                        &--=-********==&                        ",
"                         &&&---------&&&                        ",
"                            &&&&&&&&&                           ",
"                                                                "
};
