/* XPM */
static char *d6d68327524f4ffecdb8acf44b975458r5cz06TihrJmu1lJ[] = {
/* columns rows colors chars-per-pixel */
"64 64 186 2 ",
"   c #000000",
".  c #130D0A",
"X  c #1B0E0A",
"o  c #1B130B",
"O  c #1C180E",
"+  c gray10",
"@  c #151611",
"#  c #21120E",
"$  c #241A13",
"%  c #271915",
"&  c #321D17",
"*  c #2A2917",
"=  c #2D231B",
"-  c #292515",
";  c #3A2219",
":  c #37251D",
">  c #36351E",
",  c #2E2A21",
"<  c #272523",
"1  c #332A24",
"2  c #363827",
"3  c #2A363D",
"4  c #2F3437",
"5  c #451D1B",
"6  c #4C251D",
"7  c #42261B",
"8  c #54271A",
"9  c #4C331E",
"0  c #6B381E",
"q  c #7A3E1F",
"w  c #441A23",
"e  c #472D23",
"r  c #4B2B23",
"t  c #542A21",
"y  c #592D26",
"u  c #493827",
"i  c #5B3825",
"p  c #553A2A",
"a  c #583625",
"s  c #563E31",
"d  c #692A2A",
"f  c #782E2F",
"g  c #61392A",
"h  c #7E2F32",
"j  c #693937",
"k  c #7D3230",
"l  c #713735",
"z  c #3E4124",
"x  c #424526",
"c  c #44482E",
"v  c #4C4C2C",
"b  c #464629",
"n  c #5A4B29",
"m  c #4E522D",
"M  c #51542E",
"N  c #575C2C",
"B  c #474537",
"V  c #5C4135",
"C  c #544738",
"Z  c #4E5231",
"A  c #595834",
"S  c #77442C",
"D  c #6D4B3D",
"F  c #7D4B3C",
"G  c #7E4935",
"H  c #7F5238",
"J  c #674E2F",
"K  c #5E622E",
"L  c #5F6232",
"P  c #66642F",
"I  c #686C34",
"U  c #676C3E",
"Y  c #666838",
"T  c #6D7239",
"R  c #717335",
"E  c #73763E",
"W  c #757A3D",
"Q  c #7C7E3B",
"!  c #1F324D",
"~  c #1F3958",
"^  c #1F3552",
"/  c #253A46",
"(  c #304055",
")  c #2D4F7A",
"_  c #305078",
"`  c #274263",
"'  c #545644",
"]  c #6A4E41",
"[  c #61454A",
"{  c #645544",
"}  c #745847",
"|  c #6B5F52",
" . c #5F6340",
".. c #7D674F",
"X. c #6D7045",
"o. c #707341",
"O. c #797E43",
"+. c #767C43",
"@. c #6F695C",
"#. c #796954",
"$. c #706D4E",
"%. c #7E6871",
"&. c #893837",
"*. c #873336",
"=. c #913536",
"-. c #963B39",
";. c #AB3D3E",
":. c #B43E3F",
">. c #91502E",
",. c #B5423F",
"<. c #AC5E34",
"1. c #B46136",
"2. c #B3693E",
"3. c #C3693C",
"4. c #CB6E3D",
"5. c #914647",
"6. c #8D5D46",
"7. c #B34241",
"8. c #BB4243",
"9. c #B94845",
"0. c #AE585D",
"q. c #AB5459",
"w. c #836149",
"e. c #8F7351",
"r. c #8A755B",
"t. c #92775D",
"y. c #A46843",
"u. c #A86B4A",
"i. c #B96F50",
"p. c #AB705F",
"a. c #BC6D49",
"s. c #AA5A61",
"d. c #826371",
"f. c #8E7962",
"g. c #C44644",
"h. c #CC4749",
"j. c #CC4749",
"k. c #CD7C5B",
"l. c #C2785C",
"z. c #7D833E",
"x. c #7D8245",
"c. c #838740",
"v. c #888845",
"b. c #8C9344",
"n. c #A7855A",
"m. c #998766",
"M. c #9D9068",
"N. c #AE8F6F",
"B. c #A0906F",
"V. c #B09073",
"C. c #B0A362",
"Z. c #CCA57C",
"A. c #D2B67F",
"S. c #DAA378",
"D. c #3F5E82",
"F. c #335782",
"G. c #667B96",
"H. c #7FA5B6",
"J. c #7AB1CE",
"K. c #8A899D",
"L. c #9198AA",
"P. c #DAB686",
"I. c #D6BC88",
"U. c #C7B591",
"Y. c #CCAC86",
"T. c #E7BB86",
"R. c #EBBC87",
"E. c #E8BE89",
"W. c #DEC799",
"Q. c #EAC18E",
"!. c #F0CF8F",
"~. c #EFC694",
"^. c #ECC993",
"/. c #EECE99",
"(. c #E4CA9A",
"). c #F1CF9B",
"_. c #F3D69E",
"`. c #DEC8A5",
"'. c #EDD5A1",
"]. c #F4D7A0",
"[. c #FADFAE",
"{. c #F4DAA8",
"}. c #F5DFB0",
"|. c #F8E0AE",
" X c #FBE3B1",
".X c #FCE3BE",
/* pixels */
"                                                                                                                                ",
"                                                                                                                                ",
"                                                                                                                                ",
"                                                                                                                                ",
"                                                                                                                                ",
"                                                                                                                                ",
"                                                                                                                                ",
"                                                                                                                                ",
"                                                                                                                                ",
"                                                                                                                                ",
"                                                                                                                                ",
"                                                                                                                                ",
"                                                                                                                                ",
"                                                                                                                                ",
"                                                                                                                                ",
"                                                                                                                                ",
"                                                                                                                                ",
"                                                                                                                                ",
"                                                                                                                                ",
"                                                                                                                                ",
"                                                                                                                                ",
"                                                                                                                                ",
"                                                                                                                                ",
"                                                                                                                                ",
"                                                                                                                                ",
"                                                                                                                                ",
"                                                                                                                                ",
"                                                                                                                                ",
"                                                                    G.                                                          ",
"                                                                G.G.) _ F.D.                                                    ",
"                                        P.N.              +   G.( ` ~ ! ~ F.D.D.                                                ",
"                                        l.P.P.P.P.         .A M m Z M M M 4 ~ ~       !.!.                                      ",
"                                          l.F k.k.P.z T z.c.c.c.c.c.b.b.b.O.B.I.~.!.!.k.k.                                      ",
"                                            F F A W c.z.z.c.c.I R Q Q z.Q C.I.R.S.k.F k.                                        ",
"                                              , % = * > N P P K z * * * x Y v.n.i.} >.                                          ",
"                                              5 5.0.0.5.a x b u l q.s.0.l p Z H 6.p.                                            ",
"                                              w %.H.K.%.5 $ $ % [ K.J.L.j & + o % b                                             ",
"                                            P o < 3 3 < X o X . + 4 / 4 # . . . O 9 .                                           ",
"                                        P P P X.e.Q +.+.o.E E E E E o.X.X.U o.o.Y - + 1                                         ",
"                                      Y I K c z 9 6 5 r } e.D y t t 8 8 i w...c N T E Y X.                                      ",
"                                      2 c c C  X3.; ; 3.R.|.[.3.& 5 & 3.R.[.Z.r.x N P P n >.                                    ",
"                                          B u [.; 4.4.; 3.R.[.; k.4.4.5 3.R./.U.@.c c b 0 <.                                    ",
"                                              [.a.1.3.3.R.].[.a.4.4.3.1.R.[.!.^.E.W.| i >.1.                                    ",
"                                              '.[.3.3.R.R.; ; [.].4.4.A.[. X{.R.R.Z.] G >.y.                                    ",
"                                              {.(.|.`.[.[._.{.U.[.[.|.|.|. X[.R.R.R.t.a i                                       ",
"                                                '.].'.; [.[.[.[.; [.|.[._.R.R.R.P.N.s 0                                         ",
"                                                  '.]./.; ; ; ; ).~.R.R.R.E.E.R.j & *.                                          ",
"                                                +   =.R.E.E.E.T.R.R.R.R.] j l *.-.*.=.          y.                              ",
"                                                  =.=.=.y r r r r r r l =.-.;.8.8.=.=.        y.y.p                             ",
"                                          U     =.;.j.h.j.,.:.:.,.7.8.8.:.g.&.*.k =.        y.2.p                               ",
"                                           .    =.d k =.&.k 9.9.g.h.9.-.&.&.*.=.E.        u.u.V                                 ",
"                                        L X.c   ' % V e.D & d d d k l } Z.t.#.f. XQ..   y.y.p                                   ",
"                                        +.Y c   ).#.m.^.I.#.1 6 g w.Z.~._.I.r.m.}.R.  u.y.p                                     ",
"                                        2 u c _.'.r.B.{._.W.#.u 9 S } ..(.}.U.$., 1 b B p                                       ",
"                                          _._._.^.t.V..X X|.'.m.s 7 9 i e } D A O.W T '                                         ",
"                                            T.T.R.    e e e 9 e , . # % % e S y.b Y P                                           ",
"                                              @ +     : e e e e e 7 g 8 9 S y.y.u M c                                           ",
"                                                      C Q.e.u C e.e.e.e.>.y.y.p                                                 ",
"                                                      Q.{.Q.e.n.Q.].Q.].y.y.p                                                   ",
"                                                      c #.Q.c 1 { ].].y.y.p @.                                                  ",
"                                                      x.z c c       n N p x A                                                   ",
"                                                      z.K c         P R e.z.                                                    ",
"                                                    W L P c         v I R x.z.                                                  ",
"                                                  c c c c c         c c c c c                                                   "
};
